<svg xmlns="http://www.w3.org/2000/svg" viewBox="0 0 900 520" role="img" aria-label="product-newbalance.svg">
<defs>
  <linearGradient id="upper" x1="0" y1="0" x2="1" y2="1"><stop offset="0" stop-color="#244d4a"/><stop offset="0.62" stop-color="#152c2a"/><stop offset="1" stop-color="#090909"/></linearGradient>
  <linearGradient id="panel" x1="0" y1="0" x2="1" y2="0"><stop offset="0" stop-color="#7cf9d7" stop-opacity=".98"/><stop offset="1" stop-color="#7cf9d7" stop-opacity=".35"/></linearGradient>
  <linearGradient id="sole" x1="0" y1="0" x2="0" y2="1"><stop offset="0" stop-color="#efefe9"/><stop offset="1" stop-color="#a9a9a9"/></linearGradient>
  <filter id="shadow" x="-30%" y="-30%" width="160%" height="190%"><feGaussianBlur in="SourceAlpha" stdDeviation="18"/><feOffset dy="24"/><feColorMatrix values="0 0 0 0 0 0 0 0 0 0 0 0 0 0 0 0 0 0 .45 0"/><feMerge><feMergeNode/><feMergeNode in="SourceGraphic"/></feMerge></filter>
  <filter id="glow"><feGaussianBlur stdDeviation="8" result="b"/><feMerge><feMergeNode in="b"/><feMergeNode in="SourceGraphic"/></feMerge></filter>
</defs>
<rect width="900" height="520" fill="none"/>
<g filter="url(#shadow)" transform="translate(8 10) rotate(-4 450 270)">
  <path d="M113 346 C158 303 210 283 249 242 C282 207 294 146 333 111 C361 86 398 88 427 113 L521 207 C570 221 633 232 709 259 C770 281 811 304 824 331 C840 365 807 389 758 397 C656 414 523 414 388 414 L190 414 C138 414 92 384 113 346Z" fill="url(#upper)" stroke="#ffffff" stroke-opacity=".16" stroke-width="3"/>
  <path d="M113 347 C237 372 373 375 500 369 C613 363 726 348 823 333 C833 349 828 367 809 382 C776 407 700 423 596 429 L188 429 C128 429 85 396 96 371 C100 361 106 353 113 347Z" fill="url(#sole)" stroke="#111" stroke-width="4"/>
  <path d="M323 126 L430 211 L389 304 L251 285 C279 251 290 201 323 126Z" fill="#ffffff" fill-opacity=".09"/>
  <path d="M431 211 C474 220 527 230 585 244 L506 331 L390 304Z" fill="#000" fill-opacity=".30"/>
  <path d="M247 289 C345 292 448 313 553 337 C625 353 704 349 778 336 C715 377 595 390 479 391 L201 387 C172 386 151 378 138 365 C174 338 210 315 247 289Z" fill="#000" fill-opacity=".18"/>
  <path d="M198 308 C281 276 355 244 433 211 C478 192 522 194 554 210 C491 252 420 291 346 323 C288 348 227 364 167 368Z" fill="url(#panel)" filter="url(#glow)" opacity=".95"/>
  <path d="M390 170 L466 246" stroke="#fff" stroke-opacity=".75" stroke-width="10" stroke-linecap="round"/>
  <path d="M368 190 L447 265" stroke="#fff" stroke-opacity=".60" stroke-width="9" stroke-linecap="round"/>
  <path d="M349 211 L427 283" stroke="#fff" stroke-opacity=".45" stroke-width="8" stroke-linecap="round"/>
  <path d="M130 370 C315 400 595 397 807 353" fill="none" stroke="#111" stroke-opacity=".7" stroke-width="7"/>
  <path d="M153 391 C334 414 604 411 773 378" fill="none" stroke="#666" stroke-opacity=".55" stroke-width="3" stroke-dasharray="13 12"/>
  <path d="M648 286 L771 321" stroke="#fff" stroke-opacity=".12" stroke-width="18" stroke-linecap="round"/>
  <text x="650" y="373" font-family="Arial, sans-serif" font-size="27" letter-spacing="8" fill="#151515" font-weight="800">RUN 04</text>
</g>
</svg>